<?xml version="1.0" standalone="no"?><!DOCTYPE svg PUBLIC "-//W3C//DTD SVG 1.1//EN" "http://www.w3.org/Graphics/SVG/1.1/DTD/svg11.dtd"><svg t="1495615508763" class="icon" style="" viewBox="0 0 1024 1024" version="1.1" xmlns="http://www.w3.org/2000/svg" p-id="4715" xmlns:xlink="http://www.w3.org/1999/xlink" width="200" height="200"><defs><style type="text/css"></style></defs><path d="M26 794.18h972v80.5H26z" fill="#E6E9ED" p-id="4716"></path><path d="M552 783.688v-114.502h-91v114.502h-94.468v91h287.5v-91z" fill="#A0D468" p-id="4717"></path><path d="M150 229.34h716v425.34H150z" fill="#656D78" p-id="4718"></path><path d="M756 150.688H280l-104 58v20.656h690z" fill="#434A54" p-id="4719"></path><path d="M814.688 346c0 18.062-18.656 32.688-41.688 32.688-23 0-41.656-14.626-41.656-32.688 0-18.032 18.656-32.656 41.656-32.656 23.032 0 41.688 14.624 41.688 32.656zM803.344 556.376c0 20.062-14.032 36.312-31.344 36.312-17.282 0-31.312-16.25-31.312-36.312 0-20.064 14.032-36.344 31.312-36.344 17.312 0 31.344 16.278 31.344 36.344z" fill="#A0D468" p-id="4720"></path><path d="M767.968 277.344c-35.344 0-64 28.656-64 64s28.656 64 64 64 64-28.656 64-64-28.656-64-64-64z m0 85.344c-11.75 0-21.312-9.562-21.312-21.344 0-11.75 9.562-21.344 21.312-21.344 11.782 0 21.344 9.592 21.344 21.344 0 11.782-9.562 21.344-21.344 21.344zM298.656 320c0-11.75-9.562-21.312-21.344-21.312a21.286 21.286 0 0 0-15.094 6.25l-42.656 42.656a21.222 21.222 0 0 0-6.25 15.094c0 11.782 9.562 21.312 21.344 21.312 5.876 0 11.218-2.376 15.094-6.25l42.658-42.626a21.434 21.434 0 0 0 6.248-15.124zM383.968 320c0-11.75-9.532-21.312-21.312-21.312a21.234 21.234 0 0 0-15.094 6.25l-42.656 42.656a21.222 21.222 0 0 0-6.25 15.094A21.3 21.3 0 0 0 319.97 384c5.906 0 11.25-2.376 15.092-6.25l42.656-42.626a21.292 21.292 0 0 0 6.25-15.124zM447.968 298.688a21.156 21.156 0 0 0-15.062 6.25l-42.688 42.656a21.356 21.356 0 0 0-6.25 15.094c0 11.782 9.562 21.312 21.344 21.312 5.906 0 11.218-2.376 15.094-6.25l42.656-42.626a21.298 21.298 0 0 0 6.25-15.126c0-11.748-9.562-21.31-21.344-21.31z" fill="" p-id="4721"></path><path d="M575.968 768v-85.312h320V213.344l-128-85.344h-512l-128 85.344v469.344h320V768H0v128h1024v-128H575.968zM170.656 256h682.656v170.688H170.656V256z m98.25-85.312h486.156l64 42.656H204.906l64-42.656zM170.656 469.344h682.656V640H170.656v-170.656z m-128 341.344h298.656v42.656H42.656v-42.656z m405.312 42.656h-64v-42.656h106.688v-128h42.656v128h106.656v42.656h-192z m533.344 0H682.656v-42.656h298.656v42.656z" fill="" p-id="4722"></path><path d="M767.968 490.688c-35.344 0-64 28.656-64 64s28.656 64 64 64 64-28.656 64-64-28.656-64-64-64z m0 85.312c-11.75 0-21.312-9.562-21.312-21.312s9.562-21.344 21.312-21.344c11.782 0 21.344 9.594 21.344 21.344S779.75 576 767.968 576zM298.656 533.344c0-11.782-9.562-21.344-21.344-21.344a21.412 21.412 0 0 0-15.094 6.25l-42.656 42.688a21.284 21.284 0 0 0-6.25 15.062c0 11.812 9.562 21.344 21.344 21.344 5.876 0 11.218-2.406 15.094-6.25l42.658-42.656c3.842-3.876 6.248-9.188 6.248-15.094zM383.968 533.344c0-11.782-9.532-21.344-21.312-21.344a21.302 21.302 0 0 0-15.094 6.25l-42.656 42.688a21.15 21.15 0 0 0-6.25 15.062c0 11.812 9.532 21.344 21.314 21.344 5.906 0 11.25-2.406 15.092-6.25l42.656-42.656a21.226 21.226 0 0 0 6.25-15.094zM447.968 512a21.412 21.412 0 0 0-15.094 6.25l-42.626 42.688a21.18 21.18 0 0 0-6.282 15.062c0 11.812 9.562 21.344 21.344 21.344 5.906 0 11.218-2.406 15.094-6.25l42.656-42.656a21.226 21.226 0 0 0 6.25-15.094c0.002-11.782-9.56-21.344-21.342-21.344z" fill="" p-id="4723"></path></svg>